<svg viewBox="0 0 680 320" xmlns="http://www.w3.org/2000/svg" role="img">
<line x1="48" y1="264" x2="666" y2="264" stroke="#eee"/>
<text x="42" y="268" font-size="11" fill="#888" text-anchor="end">0%</text>
<line x1="48" y1="206" x2="666" y2="206" stroke="#eee"/>
<text x="42" y="210" font-size="11" fill="#888" text-anchor="end">25%</text>
<line x1="48" y1="147" x2="666" y2="147" stroke="#eee"/>
<text x="42" y="151" font-size="11" fill="#888" text-anchor="end">50%</text>
<line x1="48" y1="88" x2="666" y2="88" stroke="#eee"/>
<text x="42" y="92" font-size="11" fill="#888" text-anchor="end">75%</text>
<line x1="48" y1="30" x2="666" y2="30" stroke="#eee"/>
<text x="42" y="34" font-size="11" fill="#888" text-anchor="end">100%</text>
<rect x="89" y="127" width="41" height="137" fill="#d93025" rx="2"/>
<text x="110" y="123" font-size="10" fill="#444" text-anchor="middle">58</text>
<rect x="141" y="95" width="41" height="169" fill="#f9ab00" rx="2"/>
<text x="161" y="91" font-size="10" fill="#444" text-anchor="middle">72</text>
<rect x="192" y="142" width="41" height="122" fill="#1a7f64" rx="2"/>
<text x="213" y="138" font-size="10" fill="#444" text-anchor="middle">52</text>
<text x="151" y="282" font-size="12" fill="#333" text-anchor="middle">Opus 4.8</text>
<rect x="295" y="120" width="41" height="144" fill="#d93025" rx="2"/>
<text x="316" y="116" font-size="10" fill="#444" text-anchor="middle">62</text>
<rect x="347" y="77" width="41" height="187" fill="#f9ab00" rx="2"/>
<text x="367" y="73" font-size="10" fill="#444" text-anchor="middle">80</text>
<rect x="398" y="142" width="41" height="122" fill="#1a7f64" rx="2"/>
<text x="419" y="138" font-size="10" fill="#444" text-anchor="middle">52</text>
<text x="357" y="282" font-size="12" fill="#333" text-anchor="middle">Sonnet 4.6</text>
<rect x="501" y="131" width="41" height="133" fill="#d93025" rx="2"/>
<text x="522" y="127" font-size="10" fill="#444" text-anchor="middle">57</text>
<rect x="553" y="37" width="41" height="227" fill="#f9ab00" rx="2"/>
<text x="573" y="33" font-size="10" fill="#444" text-anchor="middle">97</text>
<rect x="604" y="142" width="41" height="122" fill="#1a7f64" rx="2"/>
<text x="625" y="138" font-size="10" fill="#444" text-anchor="middle">52</text>
<text x="563" y="282" font-size="12" fill="#333" text-anchor="middle">Haiku 4.5</text>
<rect x="48" y="302" width="11" height="11" fill="#d93025"/>
<text x="63" y="312" font-size="11" fill="#444">闭卷（无材料）</text>
<rect x="161" y="302" width="11" height="11" fill="#f9ab00"/>
<text x="176" y="312" font-size="11" fill="#444">给全材料（dump）</text>
<rect x="307" y="302" width="11" height="11" fill="#1a7f64"/>
<text x="322" y="312" font-size="11" fill="#444">skill（惰性检索）</text>
</svg>