<svg viewBox="0 0 680 320" xmlns="http://www.w3.org/2000/svg" role="img">
<line x1="48" y1="264" x2="666" y2="264" stroke="#eee"/>
<text x="42" y="268" font-size="11" fill="#888" text-anchor="end">0%</text>
<line x1="48" y1="206" x2="666" y2="206" stroke="#eee"/>
<text x="42" y="210" font-size="11" fill="#888" text-anchor="end">25%</text>
<line x1="48" y1="147" x2="666" y2="147" stroke="#eee"/>
<text x="42" y="151" font-size="11" fill="#888" text-anchor="end">50%</text>
<line x1="48" y1="88" x2="666" y2="88" stroke="#eee"/>
<text x="42" y="92" font-size="11" fill="#888" text-anchor="end">75%</text>
<line x1="48" y1="30" x2="666" y2="30" stroke="#eee"/>
<text x="42" y="34" font-size="11" fill="#888" text-anchor="end">100%</text>
<rect x="89" y="260" width="41" height="4" fill="#d93025" rx="2"/>
<text x="110" y="256" font-size="10" fill="#444" text-anchor="middle">2</text>
<rect x="141" y="234" width="41" height="30" fill="#f9ab00" rx="2"/>
<text x="161" y="230" font-size="10" fill="#444" text-anchor="middle">13</text>
<rect x="192" y="217" width="41" height="47" fill="#1a7f64" rx="2"/>
<text x="213" y="213" font-size="10" fill="#444" text-anchor="middle">20</text>
<text x="151" y="282" font-size="12" fill="#333" text-anchor="middle">Opus 4.8</text>
<rect x="295" y="221" width="41" height="43" fill="#d93025" rx="2"/>
<text x="316" y="217" font-size="10" fill="#444" text-anchor="middle">18</text>
<rect x="347" y="196" width="41" height="68" fill="#f9ab00" rx="2"/>
<text x="367" y="192" font-size="10" fill="#444" text-anchor="middle">29</text>
<rect x="398" y="196" width="41" height="68" fill="#1a7f64" rx="2"/>
<text x="419" y="192" font-size="10" fill="#444" text-anchor="middle">29</text>
<text x="357" y="282" font-size="12" fill="#333" text-anchor="middle">Sonnet 4.6</text>
<rect x="501" y="255" width="41" height="9" fill="#d93025" rx="2"/>
<text x="522" y="251" font-size="10" fill="#444" text-anchor="middle">4</text>
<rect x="553" y="187" width="41" height="77" fill="#f9ab00" rx="2"/>
<text x="573" y="183" font-size="10" fill="#444" text-anchor="middle">33</text>
<rect x="604" y="217" width="41" height="47" fill="#1a7f64" rx="2"/>
<text x="625" y="213" font-size="10" fill="#444" text-anchor="middle">20</text>
<text x="563" y="282" font-size="12" fill="#333" text-anchor="middle">Haiku 4.5</text>
<rect x="48" y="302" width="11" height="11" fill="#d93025"/>
<text x="63" y="312" font-size="11" fill="#444">不给资料</text>
<rect x="128" y="302" width="11" height="11" fill="#f9ab00"/>
<text x="143" y="312" font-size="11" fill="#444">裸文件 + 通用 agent</text>
<rect x="318" y="302" width="11" height="11" fill="#1a7f64"/>
<text x="333" y="312" font-size="11" fill="#444">使用本技能</text>
</svg>