<svg viewBox="0 0 680 320" xmlns="http://www.w3.org/2000/svg" role="img">
<line x1="48" y1="264" x2="666" y2="264" stroke="#eee"/>
<text x="42" y="268" font-size="11" fill="#888" text-anchor="end">0%</text>
<line x1="48" y1="206" x2="666" y2="206" stroke="#eee"/>
<text x="42" y="210" font-size="11" fill="#888" text-anchor="end">25%</text>
<line x1="48" y1="147" x2="666" y2="147" stroke="#eee"/>
<text x="42" y="151" font-size="11" fill="#888" text-anchor="end">50%</text>
<line x1="48" y1="88" x2="666" y2="88" stroke="#eee"/>
<text x="42" y="92" font-size="11" fill="#888" text-anchor="end">75%</text>
<line x1="48" y1="30" x2="666" y2="30" stroke="#eee"/>
<text x="42" y="34" font-size="11" fill="#888" text-anchor="end">100%</text>
<rect x="103" y="124" width="55" height="140" fill="#d93025" rx="2"/>
<text x="130" y="120" font-size="10" fill="#444" text-anchor="middle">60</text>
<rect x="172" y="36" width="55" height="228" fill="#1a7f64" rx="2"/>
<text x="199" y="32" font-size="10" fill="#444" text-anchor="middle">98</text>
<text x="151" y="282" font-size="12" fill="#333" text-anchor="middle">Opus 4.8</text>
<rect x="309" y="135" width="55" height="129" fill="#d93025" rx="2"/>
<text x="336" y="131" font-size="10" fill="#444" text-anchor="middle">55</text>
<rect x="378" y="48" width="55" height="216" fill="#1a7f64" rx="2"/>
<text x="405" y="44" font-size="10" fill="#444" text-anchor="middle">92</text>
<text x="357" y="282" font-size="12" fill="#333" text-anchor="middle">Sonnet 4.6</text>
<rect x="515" y="135" width="55" height="129" fill="#d93025" rx="2"/>
<text x="542" y="131" font-size="10" fill="#444" text-anchor="middle">55</text>
<rect x="584" y="77" width="55" height="187" fill="#1a7f64" rx="2"/>
<text x="611" y="73" font-size="10" fill="#444" text-anchor="middle">80</text>
<text x="563" y="282" font-size="12" fill="#333" text-anchor="middle">Haiku 4.5</text>
<rect x="48" y="302" width="11" height="11" fill="#d93025"/>
<text x="63" y="312" font-size="11" fill="#444">No materials</text>
<rect x="160.8" y="302" width="11" height="11" fill="#1a7f64"/>
<text x="175.8" y="312" font-size="11" fill="#444">With the skill</text>
</svg>