<svg viewBox="0 0 680 400" xmlns="http://www.w3.org/2000/svg" font-family="-apple-system,Segoe UI,Roboto,Helvetica,Arial,sans-serif">
<text x="340.0" y="28" text-anchor="middle" font-size="16" font-weight="700" fill="#202124">装了 skill vs 没装：各项指标对比（越高越好）</text>
<line x1="56" y1="312.0" x2="656" y2="312.0" stroke="#e8eaed"/>
<text x="48" y="316.0" text-anchor="end" font-size="11" fill="#5f6368">0%</text>
<line x1="56" y1="183.0" x2="656" y2="183.0" stroke="#e8eaed"/>
<text x="48" y="187.0" text-anchor="end" font-size="11" fill="#5f6368">50%</text>
<line x1="56" y1="54.0" x2="656" y2="54.0" stroke="#e8eaed"/>
<text x="48" y="58.0" text-anchor="end" font-size="11" fill="#5f6368">100%</text>
<rect x="78.2" y="88.4" width="36.0" height="223.6" rx="3" fill="#9aa0a6"/>
<text x="96.2" y="83.4" text-anchor="middle" font-size="11.5" font-weight="600" fill="#9aa0a6">87%</text>
<rect x="117.8" y="62.6" width="36.0" height="249.4" rx="3" fill="#1a7f64"/>
<text x="135.8" y="57.6" text-anchor="middle" font-size="11.5" font-weight="600" fill="#1a7f64">97%</text>
<text x="116.0" y="330.0" text-anchor="middle" font-size="11.5" fill="#202124">忠实度</text>
<rect x="198.2" y="79.8" width="36.0" height="232.2" rx="3" fill="#9aa0a6"/>
<text x="216.2" y="74.8" text-anchor="middle" font-size="11.5" font-weight="600" fill="#9aa0a6">90%</text>
<rect x="237.8" y="54.0" width="36.0" height="258.0" rx="3" fill="#1a7f64"/>
<text x="255.8" y="49.0" text-anchor="middle" font-size="11.5" font-weight="600" fill="#1a7f64">100%</text>
<text x="236.0" y="330.0" text-anchor="middle" font-size="11.5" fill="#202124">正确率</text>
<rect x="318.2" y="183.0" width="36.0" height="129.0" rx="3" fill="#9aa0a6"/>
<text x="336.2" y="178.0" text-anchor="middle" font-size="11.5" font-weight="600" fill="#9aa0a6">50%</text>
<rect x="357.8" y="54.0" width="36.0" height="258.0" rx="3" fill="#1a7f64"/>
<text x="375.8" y="49.0" text-anchor="middle" font-size="11.5" font-weight="600" fill="#1a7f64">100%</text>
<text x="356.0" y="330.0" text-anchor="middle" font-size="11.5" fill="#202124">计算题准确率</text>
<rect x="438.2" y="54.0" width="36.0" height="258.0" rx="3" fill="#9aa0a6"/>
<text x="456.2" y="49.0" text-anchor="middle" font-size="11.5" font-weight="600" fill="#9aa0a6">100%</text>
<rect x="477.8" y="54.0" width="36.0" height="258.0" rx="3" fill="#1a7f64"/>
<text x="495.8" y="49.0" text-anchor="middle" font-size="11.5" font-weight="600" fill="#1a7f64">100%</text>
<text x="476.0" y="330.0" text-anchor="middle" font-size="11.5" fill="#202124">越界弃答率</text>
<rect x="558.2" y="73.8" width="36.0" height="238.2" rx="3" fill="#9aa0a6"/>
<text x="576.2" y="68.8" text-anchor="middle" font-size="11.5" font-weight="600" fill="#9aa0a6">92%</text>
<rect x="597.8" y="73.8" width="36.0" height="238.2" rx="3" fill="#1a7f64"/>
<text x="615.8" y="68.8" text-anchor="middle" font-size="11.5" font-weight="600" fill="#1a7f64">92%</text>
<text x="596.0" y="330.0" text-anchor="middle" font-size="11.5" fill="#202124">无幻觉率</text>
<rect x="56" y="374" width="13" height="13" rx="2" fill="#9aa0a6"/>
<text x="74" y="385" font-size="12" fill="#5f6368">没装 skill（基线）</text>
<rect x="241" y="374" width="13" height="13" rx="2" fill="#1a7f64"/>
<text x="259" y="385" font-size="12" fill="#5f6368">装了 skill</text>
</svg>