<svg viewBox="0 0 720 430" xmlns="http://www.w3.org/2000/svg" font-family="-apple-system,Segoe UI,Roboto,Helvetica,Arial,sans-serif">
<text x="360.0" y="28" text-anchor="middle" font-size="16" font-weight="700" fill="#202124">Metrics converging toward the ceiling across feedback rounds</text>
<line x1="54" y1="380.0" x2="582" y2="380.0" stroke="#e8eaed"/>
<text x="46" y="384.0" text-anchor="end" font-size="11" fill="#5f6368">0%</text>
<line x1="54" y1="218.0" x2="582" y2="218.0" stroke="#e8eaed"/>
<text x="46" y="222.0" text-anchor="end" font-size="11" fill="#5f6368">50%</text>
<line x1="54" y1="56.0" x2="582" y2="56.0" stroke="#e8eaed"/>
<text x="46" y="60.0" text-anchor="end" font-size="11" fill="#5f6368">100%</text>
<line x1="54" y1="56.0" x2="582" y2="56.0" stroke="#5f6368" stroke-dasharray="5 4"/>
<text x="582" y="50.0" text-anchor="end" font-size="11" fill="#5f6368">ceiling 100%</text>
<text x="54.0" y="400.0" text-anchor="middle" font-size="11.5" fill="#202124">R1</text>
<text x="318.0" y="400.0" text-anchor="middle" font-size="11.5" fill="#202124">R2</text>
<text x="582.0" y="400.0" text-anchor="middle" font-size="11.5" fill="#202124">R3</text>
<polyline points="54.0,258.5 318.0,145.1 582.0,56.0" fill="none" stroke="#1a7f64" stroke-width="2.5"/>
<circle cx="54.0" cy="258.5" r="3.5" fill="#1a7f64"/>
<circle cx="318.0" cy="145.1" r="3.5" fill="#1a7f64"/>
<circle cx="582.0" cy="56.0" r="3.5" fill="#1a7f64"/>
<text x="590.0" y="60.0" font-size="11.5" font-weight="600" fill="#1a7f64">Faithfulness 100%</text>
<polyline points="54.0,258.5 318.0,145.1 582.0,56.0" fill="none" stroke="#1a73e8" stroke-width="2.5"/>
<circle cx="54.0" cy="258.5" r="3.5" fill="#1a73e8"/>
<circle cx="318.0" cy="145.1" r="3.5" fill="#1a73e8"/>
<circle cx="582.0" cy="56.0" r="3.5" fill="#1a73e8"/>
<text x="590.0" y="60.0" font-size="11.5" font-weight="600" fill="#1a73e8">Correctness 100%</text>
<polyline points="54.0,56.0 318.0,56.0 582.0,56.0" fill="none" stroke="#8e44ad" stroke-width="2.5"/>
<circle cx="54.0" cy="56.0" r="3.5" fill="#8e44ad"/>
<circle cx="318.0" cy="56.0" r="3.5" fill="#8e44ad"/>
<circle cx="582.0" cy="56.0" r="3.5" fill="#8e44ad"/>
<text x="590.0" y="60.0" font-size="11.5" font-weight="600" fill="#8e44ad">Abstention 100%</text>
<polyline points="54.0,56.0 318.0,56.0 582.0,56.0" fill="none" stroke="#e67e22" stroke-width="2.5"/>
<circle cx="54.0" cy="56.0" r="3.5" fill="#e67e22"/>
<circle cx="318.0" cy="56.0" r="3.5" fill="#e67e22"/>
<circle cx="582.0" cy="56.0" r="3.5" fill="#e67e22"/>
<text x="590.0" y="60.0" font-size="11.5" font-weight="600" fill="#e67e22">Non-hallucination 100%</text>
</svg>